{
	"asset":{
		"generator":"Khronos glTF Blender I/O v4.0.44",
		"version":"2.0"
	},
	"scene":0,
	"scenes":[
		{
			"name":"Scene",
			"nodes":[
				0,
				1,
				2,
				3,
				4,
				5,
				6,
				7,
				8,
				9,
				10,
				11,
				12
			]
		}
	],
	"nodes":[
		{
			"name":"Empty",
			"rotation":[
				0.5,
				-0.5,
				0.5,
				0.5
			],
			"scale":[
				1.0898231267929077,
				1.0898231267929077,
				1.0898231267929077
			],
			"translation":[
				2.899162530899048,
				1.6958630084991455,
				-4.667324066162109
			]
		},
		{
			"mesh":0,
			"name":"Circle.001",
			"rotation":[
				0,
				0,
				-0.7071068286895752,
				0.7071068286895752
			],
			"scale":[
				0.668316125869751,
				0.7020767331123352,
				0.668316125869751
			],
			"translation":[
				-0.011669531464576721,
				-0.048656269907951355,
				-0.3064204454421997
			]
		},
		{
			"mesh":1,
			"name":"Cube",
			"rotation":[
				0.05354669690132141,
				0,
				0,
				0.9985653758049011
			],
			"scale":[
				0.061635490506887436,
				0.06182919442653656,
				0.02253219112753868
			],
			"translation":[
				-0.011185619980096817,
				0.7543898224830627,
				1.015855312347412
			]
		},
		{
			"mesh":2,
			"name":"Circle.002",
			"translation":[
				-0.018019620329141617,
				0.5609059929847717,
				0.4288244843482971
			]
		},
		{
			"name":"Empty.001",
			"scale":[
				0.20425564050674438,
				0.20425564050674438,
				0.20425564050674438
			],
			"translation":[
				-0.011669999919831753,
				0,
				0
			]
		},
		{
			"mesh":3,
			"name":"Circle.003",
			"rotation":[
				0,
				0,
				-0.7071068286895752,
				0.7071068286895752
			],
			"scale":[
				0.668316125869751,
				0.8458674550056458,
				0.668316125869751
			],
			"translation":[
				-0.039565663784742355,
				-0.013721195980906487,
				-0.30642059445381165
			]
		},
		{
			"name":"Empty.003",
			"rotation":[
				-0.4276960492134094,
				0.4268814027309418,
				-0.5628702044487,
				0.5639376640319824
			],
			"translation":[
				0,
				1.0015227794647217,
				8.638646125793457
			]
		},
		{
			"mesh":4,
			"name":"Cube.001",
			"scale":[
				0.05249866470694542,
				0.04442457854747772,
				0.022538522258400917
			],
			"translation":[
				0.5570091605186462,
				-0.025664497166872025,
				1.6232705116271973
			]
		},
		{
			"mesh":5,
			"name":"Circle",
			"rotation":[
				0.7071068286895752,
				0,
				0,
				0.7071068286895752
			],
			"scale":[
				0.04083285108208656,
				0.05882977321743965,
				0.04083285108208656
			],
			"translation":[
				0.684644877910614,
				-0.04031694307923317,
				1.6195049285888672
			]
		},
		{
			"mesh":6,
			"name":"Circle.008",
			"rotation":[
				0,
				0,
				-0.7071068286895752,
				0.7071068286895752
			],
			"scale":[
				0.6589415669441223,
				1.1700730323791504,
				0.6589415669441223
			],
			"translation":[
				0.17684075236320496,
				-0.014330215752124786,
				1.3850979804992676
			]
		},
		{
			"mesh":7,
			"name":"Circle.004",
			"scale":[
				1.9180657863616943,
				1.1153980493545532,
				0.9715846180915833
			],
			"translation":[
				-0.017731191590428352,
				0.6373947858810425,
				0.10233050584793091
			]
		},
		{
			"mesh":8,
			"name":"Circle.005",
			"rotation":[
				0,
				0,
				-0.7071068286895752,
				0.7071068286895752
			],
			"scale":[
				0.668316125869751,
				0.668316125869751,
				0.668316125869751
			],
			"translation":[
				-0.05915263295173645,
				-0.013721195980906487,
				-0.30642059445381165
			]
		},
		{
			"mesh":9,
			"name":"Circle.006",
			"rotation":[
				0,
				0,
				-0.7071068286895752,
				0.7071068286895752
			],
			"scale":[
				0.1417321264743805,
				0.1417321264743805,
				0.1417321264743805
			],
			"translation":[
				-0.08231949806213379,
				0.5040431022644043,
				1.239689826965332
			]
		}
	],
	"materials":[
		{
			"doubleSided":true,
			"name":"BrassFrame",
			"pbrMetallicRoughness":{
				"baseColorFactor":[
					0.800000011920929,
					0.800000011920929,
					0.800000011920929,
					1
				],
				"metallicFactor":0,
				"roughnessFactor":0.5
			}
		},
		{
			"doubleSided":true,
			"name":"Black",
			"pbrMetallicRoughness":{
				"baseColorFactor":[
					0.800000011920929,
					0.800000011920929,
					0.800000011920929,
					1
				],
				"metallicFactor":0,
				"roughnessFactor":0.5
			}
		},
		{
			"doubleSided":true,
			"name":"Material",
			"pbrMetallicRoughness":{
				"baseColorFactor":[
					0.800000011920929,
					0.800000011920929,
					0.800000011920929,
					1
				],
				"metallicFactor":0,
				"roughnessFactor":0.5
			}
		},
		{
			"doubleSided":true,
			"name":"OuterGear",
			"pbrMetallicRoughness":{
				"baseColorFactor":[
					0.800000011920929,
					0.800000011920929,
					0.800000011920929,
					1
				],
				"metallicFactor":0,
				"roughnessFactor":0.5
			}
		},
		{
			"doubleSided":true,
			"name":"InnerGear",
			"pbrMetallicRoughness":{
				"baseColorFactor":[
					0.800000011920929,
					0.800000011920929,
					0.800000011920929,
					1
				],
				"metallicFactor":0,
				"roughnessFactor":0.5
			}
		}
	],
	"meshes":[
		{
			"name":"Circle.001",
			"primitives":[
				{
					"attributes":{
						"POSITION":0,
						"NORMAL":1,
						"TEXCOORD_0":2
					},
					"indices":3,
					"material":0
				}
			]
		},
		{
			"name":"Cube.001",
			"primitives":[
				{
					"attributes":{
						"POSITION":4,
						"NORMAL":5,
						"TEXCOORD_0":6
					},
					"indices":7
				}
			]
		},
		{
			"name":"Circle.002",
			"primitives":[
				{
					"attributes":{
						"POSITION":8,
						"NORMAL":9,
						"TEXCOORD_0":10
					},
					"indices":11
				}
			]
		},
		{
			"name":"Circle.003",
			"primitives":[
				{
					"attributes":{
						"POSITION":12,
						"NORMAL":13,
						"TEXCOORD_0":14
					},
					"indices":15,
					"material":1
				}
			]
		},
		{
			"name":"Cube.004",
			"primitives":[
				{
					"attributes":{
						"POSITION":16,
						"NORMAL":17,
						"TEXCOORD_0":18
					},
					"indices":19
				}
			]
		},
		{
			"name":"Circle.335",
			"primitives":[
				{
					"attributes":{
						"POSITION":20,
						"NORMAL":21,
						"TEXCOORD_0":22
					},
					"indices":23,
					"material":2
				}
			]
		},
		{
			"name":"Circle.343",
			"primitives":[
				{
					"attributes":{
						"POSITION":24,
						"NORMAL":25,
						"TEXCOORD_0":26
					},
					"indices":27
				}
			]
		},
		{
			"name":"Circle.345",
			"primitives":[
				{
					"attributes":{
						"POSITION":28,
						"NORMAL":29,
						"TEXCOORD_0":30
					},
					"indices":31
				}
			]
		},
		{
			"name":"Circle.336",
			"primitives":[
				{
					"attributes":{
						"POSITION":32,
						"NORMAL":33,
						"TEXCOORD_0":34
					},
					"indices":35,
					"material":3
				}
			]
		},
		{
			"name":"Circle.340",
			"primitives":[
				{
					"attributes":{
						"POSITION":36,
						"NORMAL":37,
						"TEXCOORD_0":38
					},
					"indices":39,
					"material":4
				},
				{
					"attributes":{
						"POSITION":40,
						"NORMAL":41,
						"TEXCOORD_0":42
					},
					"indices":43,
					"material":3
				}
			]
		}
	],
	"accessors":[
		{
			"bufferView":0,
			"componentType":5126,
			"count":620,
			"max":[
				0.9967821836471558,
				0,
				2.9140357971191406
			],
			"min":[
				-1.1839317083358765,
				-0.06270740181207657,
				0.8177475929260254
			],
			"type":"VEC3"
		},
		{
			"bufferView":1,
			"componentType":5126,
			"count":620,
			"type":"VEC3"
		},
		{
			"bufferView":2,
			"componentType":5126,
			"count":620,
			"type":"VEC2"
		},
		{
			"bufferView":3,
			"componentType":5123,
			"count":1740,
			"type":"SCALAR"
		},
		{
			"bufferView":4,
			"componentType":5126,
			"count":24,
			"max":[
				1,
				1,
				1
			],
			"min":[
				-1,
				-1,
				-1
			],
			"type":"VEC3"
		},
		{
			"bufferView":5,
			"componentType":5126,
			"count":24,
			"type":"VEC3"
		},
		{
			"bufferView":6,
			"componentType":5126,
			"count":24,
			"type":"VEC2"
		},
		{
			"bufferView":7,
			"componentType":5123,
			"count":36,
			"type":"SCALAR"
		},
		{
			"bufferView":8,
			"componentType":5126,
			"count":172,
			"max":[
				0.006350048817694187,
				0.13854843378067017,
				0.47526806592941284
			],
			"min":[
				-0.005772777833044529,
				-0.43919503688812256,
				-0.4288245141506195
			],
			"type":"VEC3"
		},
		{
			"bufferView":9,
			"componentType":5126,
			"count":172,
			"type":"VEC3"
		},
		{
			"bufferView":10,
			"componentType":5126,
			"count":172,
			"type":"VEC2"
		},
		{
			"bufferView":11,
			"componentType":5123,
			"count":456,
			"type":"SCALAR"
		},
		{
			"bufferView":12,
			"componentType":5126,
			"count":234,
			"max":[
				1,
				0.06534462422132492,
				2.860833168029785
			],
			"min":[
				-1,
				-0.06867703795433044,
				0.8608332276344299
			],
			"type":"VEC3"
		},
		{
			"bufferView":13,
			"componentType":5126,
			"count":234,
			"type":"VEC3"
		},
		{
			"bufferView":14,
			"componentType":5126,
			"count":234,
			"type":"VEC2"
		},
		{
			"bufferView":15,
			"componentType":5123,
			"count":960,
			"type":"SCALAR"
		},
		{
			"bufferView":16,
			"componentType":5126,
			"count":348,
			"max":[
				51.71352767944336,
				1.1080760955810547,
				1.011981725692749
			],
			"min":[
				1.325993299484253,
				-25.052629470825195,
				-1.3540568351745605
			],
			"type":"VEC3"
		},
		{
			"bufferView":17,
			"componentType":5126,
			"count":348,
			"type":"VEC3"
		},
		{
			"bufferView":18,
			"componentType":5126,
			"count":348,
			"type":"VEC2"
		},
		{
			"bufferView":19,
			"componentType":5123,
			"count":1014,
			"type":"SCALAR"
		},
		{
			"bufferView":20,
			"componentType":5126,
			"count":72,
			"max":[
				1,
				0.5114905834197998,
				1
			],
			"min":[
				-1,
				-0.5090910196304321,
				-1
			],
			"type":"VEC3"
		},
		{
			"bufferView":21,
			"componentType":5126,
			"count":72,
			"type":"VEC3"
		},
		{
			"bufferView":22,
			"componentType":5126,
			"count":72,
			"type":"VEC2"
		},
		{
			"bufferView":23,
			"componentType":5123,
			"count":180,
			"type":"SCALAR"
		},
		{
			"bufferView":24,
			"componentType":5126,
			"count":136,
			"max":[
				1.048143982887268,
				0.477838933467865,
				0.3830203711986542
			],
			"min":[
				-1.048143744468689,
				-0.17401064932346344,
				-0.7076435685157776
			],
			"type":"VEC3"
		},
		{
			"bufferView":25,
			"componentType":5126,
			"count":136,
			"type":"VEC3"
		},
		{
			"bufferView":26,
			"componentType":5126,
			"count":136,
			"type":"VEC2"
		},
		{
			"bufferView":27,
			"componentType":5123,
			"count":372,
			"type":"SCALAR"
		},
		{
			"bufferView":28,
			"componentType":5126,
			"count":20,
			"max":[
				0.006061192601919174,
				0.06205958127975464,
				0.1038762778043747
			],
			"min":[
				-0.006061200983822346,
				-0.0635899007320404,
				-0.10532330721616745
			],
			"type":"VEC3"
		},
		{
			"bufferView":29,
			"componentType":5126,
			"count":20,
			"type":"VEC3"
		},
		{
			"bufferView":30,
			"componentType":5126,
			"count":20,
			"type":"VEC2"
		},
		{
			"bufferView":31,
			"componentType":5123,
			"count":30,
			"type":"SCALAR"
		},
		{
			"bufferView":32,
			"componentType":5126,
			"count":408,
			"max":[
				1.0759286880493164,
				0.043908022344112396,
				2.9367618560791016
			],
			"min":[
				-1.0759286880493164,
				-0.028185317292809486,
				0.7849045991897583
			],
			"type":"VEC3"
		},
		{
			"bufferView":33,
			"componentType":5126,
			"count":408,
			"type":"VEC3"
		},
		{
			"bufferView":34,
			"componentType":5126,
			"count":408,
			"type":"VEC2"
		},
		{
			"bufferView":35,
			"componentType":5123,
			"count":1056,
			"type":"SCALAR"
		},
		{
			"bufferView":36,
			"componentType":5126,
			"count":64,
			"max":[
				1.9265789985656738,
				0.027293294668197632,
				2.023160934448242
			],
			"min":[
				-0.8818104863166809,
				0.024585265666246414,
				-0.8818100094795227
			],
			"type":"VEC3"
		},
		{
			"bufferView":37,
			"componentType":5126,
			"count":64,
			"type":"VEC3"
		},
		{
			"bufferView":38,
			"componentType":5126,
			"count":64,
			"type":"VEC2"
		},
		{
			"bufferView":39,
			"componentType":5123,
			"count":180,
			"type":"SCALAR"
		},
		{
			"bufferView":40,
			"componentType":5126,
			"count":1408,
			"max":[
				2.144557476043701,
				0.13992181420326233,
				2.2411386966705322
			],
			"min":[
				-1.2150588035583496,
				-0.020609553903341293,
				-1.2150592803955078
			],
			"type":"VEC3"
		},
		{
			"bufferView":41,
			"componentType":5126,
			"count":1408,
			"type":"VEC3"
		},
		{
			"bufferView":42,
			"componentType":5126,
			"count":1408,
			"type":"VEC2"
		},
		{
			"bufferView":43,
			"componentType":5123,
			"count":2688,
			"type":"SCALAR"
		}
	],
	"bufferViews":[
		{
			"buffer":0,
			"byteLength":7440,
			"byteOffset":0,
			"target":34962
		},
		{
			"buffer":0,
			"byteLength":7440,
			"byteOffset":7440,
			"target":34962
		},
		{
			"buffer":0,
			"byteLength":4960,
			"byteOffset":14880,
			"target":34962
		},
		{
			"buffer":0,
			"byteLength":3480,
			"byteOffset":19840,
			"target":34963
		},
		{
			"buffer":0,
			"byteLength":288,
			"byteOffset":23320,
			"target":34962
		},
		{
			"buffer":0,
			"byteLength":288,
			"byteOffset":23608,
			"target":34962
		},
		{
			"buffer":0,
			"byteLength":192,
			"byteOffset":23896,
			"target":34962
		},
		{
			"buffer":0,
			"byteLength":72,
			"byteOffset":24088,
			"target":34963
		},
		{
			"buffer":0,
			"byteLength":2064,
			"byteOffset":24160,
			"target":34962
		},
		{
			"buffer":0,
			"byteLength":2064,
			"byteOffset":26224,
			"target":34962
		},
		{
			"buffer":0,
			"byteLength":1376,
			"byteOffset":28288,
			"target":34962
		},
		{
			"buffer":0,
			"byteLength":912,
			"byteOffset":29664,
			"target":34963
		},
		{
			"buffer":0,
			"byteLength":2808,
			"byteOffset":30576,
			"target":34962
		},
		{
			"buffer":0,
			"byteLength":2808,
			"byteOffset":33384,
			"target":34962
		},
		{
			"buffer":0,
			"byteLength":1872,
			"byteOffset":36192,
			"target":34962
		},
		{
			"buffer":0,
			"byteLength":1920,
			"byteOffset":38064,
			"target":34963
		},
		{
			"buffer":0,
			"byteLength":4176,
			"byteOffset":39984,
			"target":34962
		},
		{
			"buffer":0,
			"byteLength":4176,
			"byteOffset":44160,
			"target":34962
		},
		{
			"buffer":0,
			"byteLength":2784,
			"byteOffset":48336,
			"target":34962
		},
		{
			"buffer":0,
			"byteLength":2028,
			"byteOffset":51120,
			"target":34963
		},
		{
			"buffer":0,
			"byteLength":864,
			"byteOffset":53148,
			"target":34962
		},
		{
			"buffer":0,
			"byteLength":864,
			"byteOffset":54012,
			"target":34962
		},
		{
			"buffer":0,
			"byteLength":576,
			"byteOffset":54876,
			"target":34962
		},
		{
			"buffer":0,
			"byteLength":360,
			"byteOffset":55452,
			"target":34963
		},
		{
			"buffer":0,
			"byteLength":1632,
			"byteOffset":55812,
			"target":34962
		},
		{
			"buffer":0,
			"byteLength":1632,
			"byteOffset":57444,
			"target":34962
		},
		{
			"buffer":0,
			"byteLength":1088,
			"byteOffset":59076,
			"target":34962
		},
		{
			"buffer":0,
			"byteLength":744,
			"byteOffset":60164,
			"target":34963
		},
		{
			"buffer":0,
			"byteLength":240,
			"byteOffset":60908,
			"target":34962
		},
		{
			"buffer":0,
			"byteLength":240,
			"byteOffset":61148,
			"target":34962
		},
		{
			"buffer":0,
			"byteLength":160,
			"byteOffset":61388,
			"target":34962
		},
		{
			"buffer":0,
			"byteLength":60,
			"byteOffset":61548,
			"target":34963
		},
		{
			"buffer":0,
			"byteLength":4896,
			"byteOffset":61608,
			"target":34962
		},
		{
			"buffer":0,
			"byteLength":4896,
			"byteOffset":66504,
			"target":34962
		},
		{
			"buffer":0,
			"byteLength":3264,
			"byteOffset":71400,
			"target":34962
		},
		{
			"buffer":0,
			"byteLength":2112,
			"byteOffset":74664,
			"target":34963
		},
		{
			"buffer":0,
			"byteLength":768,
			"byteOffset":76776,
			"target":34962
		},
		{
			"buffer":0,
			"byteLength":768,
			"byteOffset":77544,
			"target":34962
		},
		{
			"buffer":0,
			"byteLength":512,
			"byteOffset":78312,
			"target":34962
		},
		{
			"buffer":0,
			"byteLength":360,
			"byteOffset":78824,
			"target":34963
		},
		{
			"buffer":0,
			"byteLength":16896,
			"byteOffset":79184,
			"target":34962
		},
		{
			"buffer":0,
			"byteLength":16896,
			"byteOffset":96080,
			"target":34962
		},
		{
			"buffer":0,
			"byteLength":11264,
			"byteOffset":112976,
			"target":34962
		},
		{
			"buffer":0,
			"byteLength":5376,
			"byteOffset":124240,
			"target":34963
		}
	],
	"buffers":[
		{
			"byteLength":129616,
			"uri":"steampunkGlasses.bin"
		}
	]
}
