{
	"asset":{
		"generator":"Khronos glTF Blender I/O v4.0.44",
		"version":"2.0"
	},
	"scene":0,
	"scenes":[
		{
			"name":"Scene",
			"nodes":[
				0,
				1,
				2,
				3,
				4,
				5,
				6,
				7,
				8,
				9,
				10,
				11,
				12
			]
		}
	],
	"nodes":[
		{
			"name":"Empty",
			"rotation":[
				0.5,
				-0.5,
				0.5,
				0.5
			],
			"scale":[
				1.0898231267929077,
				1.0898231267929077,
				1.0898231267929077
			],
			"translation":[
				2.899162530899048,
				1.6958630084991455,
				-4.667324066162109
			]
		},
		{
			"mesh":0,
			"name":"Circle.001",
			"rotation":[
				0,
				0,
				-0.7071068286895752,
				0.7071068286895752
			],
			"scale":[
				0.668316125869751,
				0.7020767331123352,
				0.668316125869751
			],
			"translation":[
				-0.011669531464576721,
				-0.048656269907951355,
				-0.3064204454421997
			]
		},
		{
			"mesh":1,
			"name":"Cube",
			"rotation":[
				0.05354669690132141,
				0,
				0,
				0.9985653758049011
			],
			"scale":[
				0.061635490506887436,
				0.06182919442653656,
				0.02253219112753868
			],
			"translation":[
				-0.011185619980096817,
				0.7543898224830627,
				1.015855312347412
			]
		},
		{
			"mesh":2,
			"name":"Circle.002",
			"translation":[
				-0.018019620329141617,
				0.5609059929847717,
				0.4288244843482971
			]
		},
		{
			"name":"Empty.001",
			"scale":[
				0.20425564050674438,
				0.20425564050674438,
				0.20425564050674438
			],
			"translation":[
				-0.011669999919831753,
				0,
				0
			]
		},
		{
			"mesh":3,
			"name":"Circle.003",
			"rotation":[
				0,
				0,
				-0.7071068286895752,
				0.7071068286895752
			],
			"scale":[
				0.668316125869751,
				0.8458674550056458,
				0.668316125869751
			],
			"translation":[
				-0.039565663784742355,
				-0.013721195980906487,
				-0.30642059445381165
			]
		},
		{
			"name":"Empty.003",
			"rotation":[
				-0.4276960492134094,
				0.4268814027309418,
				-0.5628702044487,
				0.5639376640319824
			],
			"translation":[
				0,
				1.0015227794647217,
				8.638646125793457
			]
		},
		{
			"mesh":4,
			"name":"Cube.001",
			"scale":[
				0.05249866470694542,
				0.04442457854747772,
				0.022538522258400917
			],
			"translation":[
				0.5570091605186462,
				-0.025664497166872025,
				1.6232705116271973
			]
		},
		{
			"mesh":5,
			"name":"Circle",
			"rotation":[
				0.7071068286895752,
				0,
				0,
				0.7071068286895752
			],
			"scale":[
				0.04083285108208656,
				0.05882977321743965,
				0.04083285108208656
			],
			"translation":[
				0.684644877910614,
				-0.04031694307923317,
				1.6195049285888672
			]
		},
		{
			"mesh":6,
			"name":"Circle.008",
			"rotation":[
				0,
				0,
				-0.7071068286895752,
				0.7071068286895752
			],
			"scale":[
				0.6589415669441223,
				1.1700730323791504,
				0.6589415669441223
			],
			"translation":[
				0.17684075236320496,
				-0.014330215752124786,
				1.3850979804992676
			]
		},
		{
			"mesh":7,
			"name":"Circle.004",
			"scale":[
				1.9180657863616943,
				1.1153980493545532,
				0.9715846180915833
			],
			"translation":[
				-0.011670000851154327,
				0.6368905901908875,
				0
			]
		},
		{
			"mesh":8,
			"name":"Circle.005",
			"rotation":[
				0,
				0,
				-0.7071068286895752,
				0.7071068286895752
			],
			"scale":[
				0.668316125869751,
				0.668316125869751,
				0.668316125869751
			],
			"translation":[
				-0.05915263295173645,
				-0.013721195980906487,
				-0.30642059445381165
			]
		},
		{
			"mesh":9,
			"name":"Circle.006",
			"rotation":[
				0,
				0,
				-0.7071068286895752,
				0.7071068286895752
			],
			"scale":[
				0.1417321264743805,
				0.1417321264743805,
				0.1417321264743805
			],
			"translation":[
				-0.08231949806213379,
				0.5040431022644043,
				1.239689826965332
			]
		}
	],
	"materials":[
		{
			"doubleSided":true,
			"emissiveTexture":{
				"index":0
			},
			"name":"BrassFrame",
			"normalTexture":{
				"index":1
			},
			"pbrMetallicRoughness":{
				"baseColorTexture":{
					"index":2
				},
				"metallicRoughnessTexture":{
					"index":3
				}
			}
		},
		{
			"doubleSided":true,
			"emissiveTexture":{
				"index":4
			},
			"name":"AltBrass",
			"normalTexture":{
				"index":5
			},
			"pbrMetallicRoughness":{
				"baseColorTexture":{
					"index":6
				},
				"metallicRoughnessTexture":{
					"index":7
				}
			}
		},
		{
			"alphaMode":"BLEND",
			"doubleSided":true,
			"emissiveTexture":{
				"index":8
			},
			"name":"Black",
			"normalTexture":{
				"index":9
			},
			"pbrMetallicRoughness":{
				"baseColorTexture":{
					"index":10
				},
				"metallicRoughnessTexture":{
					"index":11
				}
			}
		},
		{
			"doubleSided":true,
			"emissiveTexture":{
				"index":12
			},
			"name":"Arm",
			"normalTexture":{
				"index":13
			},
			"pbrMetallicRoughness":{
				"baseColorTexture":{
					"index":14
				},
				"metallicRoughnessTexture":{
					"index":15
				}
			}
		},
		{
			"doubleSided":true,
			"emissiveTexture":{
				"index":16
			},
			"name":"Bolt",
			"normalTexture":{
				"index":17
			},
			"pbrMetallicRoughness":{
				"baseColorTexture":{
					"index":18
				},
				"metallicRoughnessTexture":{
					"index":19
				}
			}
		},
		{
			"doubleSided":true,
			"emissiveTexture":{
				"index":20
			},
			"name":"OuterGear",
			"normalTexture":{
				"index":21
			},
			"pbrMetallicRoughness":{
				"baseColorTexture":{
					"index":22
				},
				"metallicRoughnessTexture":{
					"index":23
				}
			}
		},
		{
			"doubleSided":true,
			"emissiveTexture":{
				"index":24
			},
			"name":"InnerGear",
			"normalTexture":{
				"index":25
			},
			"pbrMetallicRoughness":{
				"baseColorTexture":{
					"index":26
				},
				"metallicRoughnessTexture":{
					"index":27
				}
			}
		}
	],
	"meshes":[
		{
			"name":"Circle.001",
			"primitives":[
				{
					"attributes":{
						"POSITION":0,
						"NORMAL":1,
						"TEXCOORD_0":2
					},
					"indices":3,
					"material":0
				}
			]
		},
		{
			"name":"Cube.001",
			"primitives":[
				{
					"attributes":{
						"POSITION":4,
						"NORMAL":5,
						"TEXCOORD_0":6
					},
					"indices":7
				}
			]
		},
		{
			"name":"Circle.002",
			"primitives":[
				{
					"attributes":{
						"POSITION":8,
						"NORMAL":9,
						"TEXCOORD_0":10
					},
					"indices":11,
					"material":1
				}
			]
		},
		{
			"name":"Circle.003",
			"primitives":[
				{
					"attributes":{
						"POSITION":12,
						"NORMAL":13,
						"TEXCOORD_0":14
					},
					"indices":15,
					"material":2
				}
			]
		},
		{
			"name":"Cube.004",
			"primitives":[
				{
					"attributes":{
						"POSITION":16,
						"NORMAL":17,
						"TEXCOORD_0":18
					},
					"indices":19,
					"material":3
				}
			]
		},
		{
			"name":"Circle.335",
			"primitives":[
				{
					"attributes":{
						"POSITION":20,
						"NORMAL":21,
						"TEXCOORD_0":22
					},
					"indices":23,
					"material":4
				}
			]
		},
		{
			"name":"Circle.343",
			"primitives":[
				{
					"attributes":{
						"POSITION":24,
						"NORMAL":25,
						"TEXCOORD_0":26
					},
					"indices":27,
					"material":1
				}
			]
		},
		{
			"name":"Circle.345",
			"primitives":[
				{
					"attributes":{
						"POSITION":28,
						"NORMAL":29,
						"TEXCOORD_0":30
					},
					"indices":31,
					"material":0
				}
			]
		},
		{
			"name":"Circle.336",
			"primitives":[
				{
					"attributes":{
						"POSITION":32,
						"NORMAL":33,
						"TEXCOORD_0":34
					},
					"indices":35,
					"material":5
				}
			]
		},
		{
			"name":"Circle.340",
			"primitives":[
				{
					"attributes":{
						"POSITION":36,
						"NORMAL":37,
						"TEXCOORD_0":38
					},
					"indices":39,
					"material":6
				},
				{
					"attributes":{
						"POSITION":40,
						"NORMAL":41,
						"TEXCOORD_0":42
					},
					"indices":43,
					"material":5
				}
			]
		}
	],
	"textures":[
		{
			"sampler":0,
			"source":0
		},
		{
			"sampler":0,
			"source":1
		},
		{
			"sampler":0,
			"source":2
		},
		{
			"sampler":0,
			"source":3
		},
		{
			"sampler":0,
			"source":4
		},
		{
			"sampler":0,
			"source":5
		},
		{
			"sampler":0,
			"source":6
		},
		{
			"sampler":0,
			"source":7
		},
		{
			"sampler":0,
			"source":8
		},
		{
			"sampler":0,
			"source":9
		},
		{
			"sampler":0,
			"source":10
		},
		{
			"sampler":0,
			"source":11
		},
		{
			"sampler":0,
			"source":12
		},
		{
			"sampler":0,
			"source":13
		},
		{
			"sampler":0,
			"source":14
		},
		{
			"sampler":0,
			"source":15
		},
		{
			"sampler":0,
			"source":16
		},
		{
			"sampler":0,
			"source":17
		},
		{
			"sampler":0,
			"source":18
		},
		{
			"sampler":0,
			"source":19
		},
		{
			"sampler":0,
			"source":20
		},
		{
			"sampler":0,
			"source":21
		},
		{
			"sampler":0,
			"source":22
		},
		{
			"sampler":0,
			"source":23
		},
		{
			"sampler":0,
			"source":24
		},
		{
			"sampler":0,
			"source":25
		},
		{
			"sampler":0,
			"source":26
		},
		{
			"sampler":0,
			"source":27
		}
	],
	"images":[
		{
			"mimeType":"image/png",
			"name":"BrassFrame_Emission.1001",
			"uri":"BrassFrame_Emission_1001.png"
		},
		{
			"mimeType":"image/png",
			"name":"BrassFrame_Normal.1001",
			"uri":"BrassFrame_Normal_1001.png"
		},
		{
			"mimeType":"image/png",
			"name":"BrassFrame_BaseColor.1001-BrassFrame_Alpha.1001",
			"uri":"BrassFrame_BaseColor_1001-BrassFrame_Alpha_1001.png"
		},
		{
			"mimeType":"image/png",
			"name":"BrassFrame_Metallic.1001-BrassFrame_Roughness.1001",
			"uri":"BrassFrame_Metallic_1001-BrassFrame_Roughness_1001.png"
		},
		{
			"mimeType":"image/png",
			"name":"AltBrass_Emission.1001",
			"uri":"AltBrass_Emission_1001.png"
		},
		{
			"mimeType":"image/png",
			"name":"AltBrass_Normal.1001",
			"uri":"AltBrass_Normal_1001.png"
		},
		{
			"mimeType":"image/png",
			"name":"AltBrass_BaseColor.1001-AltBrass_Alpha.1001",
			"uri":"AltBrass_BaseColor_1001-AltBrass_Alpha_1001.png"
		},
		{
			"mimeType":"image/png",
			"name":"AltBrass_Metallic.1001-AltBrass_Roughness.1001",
			"uri":"AltBrass_Metallic_1001-AltBrass_Roughness_1001.png"
		},
		{
			"mimeType":"image/png",
			"name":"Black_Emission.1001",
			"uri":"Black_Emission_1001.png"
		},
		{
			"mimeType":"image/png",
			"name":"Black_Normal.1001",
			"uri":"Black_Normal_1001.png"
		},
		{
			"mimeType":"image/png",
			"name":"Black_BaseColor.1001-Black_Alpha.1001",
			"uri":"Black_BaseColor_1001-Black_Alpha_1001.png"
		},
		{
			"mimeType":"image/png",
			"name":"Black_Metallic.1001-Black_Roughness.1001",
			"uri":"Black_Metallic_1001-Black_Roughness_1001.png"
		},
		{
			"mimeType":"image/png",
			"name":"Arm_Emission.1001",
			"uri":"Arm_Emission_1001.png"
		},
		{
			"mimeType":"image/png",
			"name":"Arm_Normal.1001",
			"uri":"Arm_Normal_1001.png"
		},
		{
			"mimeType":"image/png",
			"name":"Arm_BaseColor.1001-Arm_Alpha.1001",
			"uri":"Arm_BaseColor_1001-Arm_Alpha_1001.png"
		},
		{
			"mimeType":"image/png",
			"name":"Arm_Metallic.1001-Arm_Roughness.1001",
			"uri":"Arm_Metallic_1001-Arm_Roughness_1001.png"
		},
		{
			"mimeType":"image/png",
			"name":"Bolt_Emission.1001",
			"uri":"Bolt_Emission_1001.png"
		},
		{
			"mimeType":"image/png",
			"name":"Bolt_Normal.1001",
			"uri":"Bolt_Normal_1001.png"
		},
		{
			"mimeType":"image/png",
			"name":"Bolt_BaseColor.1001-Bolt_Alpha.1001",
			"uri":"Bolt_BaseColor_1001-Bolt_Alpha_1001.png"
		},
		{
			"mimeType":"image/png",
			"name":"Bolt_Metallic.1001-Bolt_Roughness.1001",
			"uri":"Bolt_Metallic_1001-Bolt_Roughness_1001.png"
		},
		{
			"mimeType":"image/png",
			"name":"OuterGear_Emission.1001",
			"uri":"OuterGear_Emission_1001.png"
		},
		{
			"mimeType":"image/png",
			"name":"OuterGear_Normal.1001",
			"uri":"OuterGear_Normal_1001.png"
		},
		{
			"mimeType":"image/png",
			"name":"OuterGear_BaseColor.1001-OuterGear_Alpha.1001",
			"uri":"OuterGear_BaseColor_1001-OuterGear_Alpha_1001.png"
		},
		{
			"mimeType":"image/png",
			"name":"OuterGear_Metallic.1001-OuterGear_Roughness.1001",
			"uri":"OuterGear_Metallic_1001-OuterGear_Roughness_1001.png"
		},
		{
			"mimeType":"image/png",
			"name":"InnerGear_Emission.1001",
			"uri":"InnerGear_Emission_1001.png"
		},
		{
			"mimeType":"image/png",
			"name":"InnerGear_Normal.1001",
			"uri":"InnerGear_Normal_1001.png"
		},
		{
			"mimeType":"image/png",
			"name":"InnerGear_BaseColor.1001-InnerGear_Alpha.1001",
			"uri":"InnerGear_BaseColor_1001-InnerGear_Alpha_1001.png"
		},
		{
			"mimeType":"image/png",
			"name":"InnerGear_Metallic.1001-InnerGear_Roughness.1001",
			"uri":"InnerGear_Metallic_1001-InnerGear_Roughness_1001.png"
		}
	],
	"accessors":[
		{
			"bufferView":0,
			"componentType":5126,
			"count":2223,
			"max":[
				0.9967821836471558,
				0.06270618736743927,
				2.9140357971191406
			],
			"min":[
				-1.1839317083358765,
				-0.06270740181207657,
				-1.9970430135726929
			],
			"type":"VEC3"
		},
		{
			"bufferView":1,
			"componentType":5126,
			"count":2223,
			"type":"VEC3"
		},
		{
			"bufferView":2,
			"componentType":5126,
			"count":2223,
			"type":"VEC2"
		},
		{
			"bufferView":3,
			"componentType":5123,
			"count":6660,
			"type":"SCALAR"
		},
		{
			"bufferView":4,
			"componentType":5126,
			"count":24,
			"max":[
				1,
				1,
				1
			],
			"min":[
				-1,
				-1,
				-1
			],
			"type":"VEC3"
		},
		{
			"bufferView":5,
			"componentType":5126,
			"count":24,
			"type":"VEC3"
		},
		{
			"bufferView":6,
			"componentType":5126,
			"count":24,
			"type":"VEC2"
		},
		{
			"bufferView":7,
			"componentType":5123,
			"count":36,
			"type":"SCALAR"
		},
		{
			"bufferView":8,
			"componentType":5126,
			"count":552,
			"max":[
				0.01847201958298683,
				0.13854843378067017,
				0.47526806592941284
			],
			"min":[
				-0.005772777833044529,
				-0.43919503688812256,
				-1.3329170942306519
			],
			"type":"VEC3"
		},
		{
			"bufferView":9,
			"componentType":5126,
			"count":552,
			"type":"VEC3"
		},
		{
			"bufferView":10,
			"componentType":5126,
			"count":552,
			"type":"VEC2"
		},
		{
			"bufferView":11,
			"componentType":5123,
			"count":1812,
			"type":"SCALAR"
		},
		{
			"bufferView":12,
			"componentType":5126,
			"count":468,
			"max":[
				1,
				0.06534462422132492,
				2.860833168029785
			],
			"min":[
				-1,
				-0.06867703795433044,
				-1.9438399076461792
			],
			"type":"VEC3"
		},
		{
			"bufferView":13,
			"componentType":5126,
			"count":468,
			"type":"VEC3"
		},
		{
			"bufferView":14,
			"componentType":5126,
			"count":468,
			"type":"VEC2"
		},
		{
			"bufferView":15,
			"componentType":5123,
			"count":1920,
			"type":"SCALAR"
		},
		{
			"bufferView":16,
			"componentType":5126,
			"count":7708,
			"max":[
				50.99858093261719,
				1.1041032075881958,
				0.9751852750778198
			],
			"min":[
				1.3260462284088135,
				-24.823692321777344,
				-145.01927185058594
			],
			"type":"VEC3"
		},
		{
			"bufferView":17,
			"componentType":5126,
			"count":7708,
			"type":"VEC3"
		},
		{
			"bufferView":18,
			"componentType":5126,
			"count":7708,
			"type":"VEC2"
		},
		{
			"bufferView":19,
			"componentType":5123,
			"count":40416,
			"type":"SCALAR"
		},
		{
			"bufferView":20,
			"componentType":5126,
			"count":144,
			"max":[
				1,
				0.5114905834197998,
				1.0000033378601074
			],
			"min":[
				-1,
				-55.568817138671875,
				-1
			],
			"type":"VEC3"
		},
		{
			"bufferView":21,
			"componentType":5126,
			"count":144,
			"type":"VEC3"
		},
		{
			"bufferView":22,
			"componentType":5126,
			"count":144,
			"type":"VEC2"
		},
		{
			"bufferView":23,
			"componentType":5123,
			"count":360,
			"type":"SCALAR"
		},
		{
			"bufferView":24,
			"componentType":5126,
			"count":1456,
			"max":[
				1.0460232496261597,
				0.46933645009994507,
				0.37620505690574646
			],
			"min":[
				-1.0460231304168701,
				-0.17392389476299286,
				-4.580214977264404
			],
			"type":"VEC3"
		},
		{
			"bufferView":25,
			"componentType":5126,
			"count":1456,
			"type":"VEC3"
		},
		{
			"bufferView":26,
			"componentType":5126,
			"count":1456,
			"type":"VEC2"
		},
		{
			"bufferView":27,
			"componentType":5123,
			"count":6288,
			"type":"SCALAR"
		},
		{
			"bufferView":28,
			"componentType":5126,
			"count":68,
			"max":[
				0.009221253916621208,
				0.06251156330108643,
				0.20919959247112274
			],
			"min":[
				-0.009221254847943783,
				-0.06313799321651459,
				-0.20919957756996155
			],
			"type":"VEC3"
		},
		{
			"bufferView":29,
			"componentType":5126,
			"count":68,
			"type":"VEC3"
		},
		{
			"bufferView":30,
			"componentType":5126,
			"count":68,
			"type":"VEC2"
		},
		{
			"bufferView":31,
			"componentType":5123,
			"count":108,
			"type":"SCALAR"
		},
		{
			"bufferView":32,
			"componentType":5126,
			"count":800,
			"max":[
				1.0759286880493164,
				0.043908022344112396,
				2.9367618560791016
			],
			"min":[
				-1.0759286880493164,
				-0.028185317292809486,
				-2.019768714904785
			],
			"type":"VEC3"
		},
		{
			"bufferView":33,
			"componentType":5126,
			"count":800,
			"type":"VEC3"
		},
		{
			"bufferView":34,
			"componentType":5126,
			"count":800,
			"type":"VEC2"
		},
		{
			"bufferView":35,
			"componentType":5123,
			"count":2112,
			"type":"SCALAR"
		},
		{
			"bufferView":36,
			"componentType":5126,
			"count":192,
			"max":[
				1.9265789985656738,
				0.06628923118114471,
				2.023160934448242
			],
			"min":[
				-0.8818109035491943,
				0.024585239589214325,
				-19.516582489013672
			],
			"type":"VEC3"
		},
		{
			"bufferView":37,
			"componentType":5126,
			"count":192,
			"type":"VEC3"
		},
		{
			"bufferView":38,
			"componentType":5126,
			"count":192,
			"type":"VEC2"
		},
		{
			"bufferView":39,
			"componentType":5123,
			"count":540,
			"type":"SCALAR"
		},
		{
			"bufferView":40,
			"componentType":5126,
			"count":2824,
			"max":[
				2.144557476043701,
				0.13992181420326233,
				2.2411386966705322
			],
			"min":[
				-1.2150591611862183,
				-0.02060958556830883,
				-19.734560012817383
			],
			"type":"VEC3"
		},
		{
			"bufferView":41,
			"componentType":5126,
			"count":2824,
			"type":"VEC3"
		},
		{
			"bufferView":42,
			"componentType":5126,
			"count":2824,
			"type":"VEC2"
		},
		{
			"bufferView":43,
			"componentType":5123,
			"count":5376,
			"type":"SCALAR"
		}
	],
	"bufferViews":[
		{
			"buffer":0,
			"byteLength":26676,
			"byteOffset":0,
			"target":34962
		},
		{
			"buffer":0,
			"byteLength":26676,
			"byteOffset":26676,
			"target":34962
		},
		{
			"buffer":0,
			"byteLength":17784,
			"byteOffset":53352,
			"target":34962
		},
		{
			"buffer":0,
			"byteLength":13320,
			"byteOffset":71136,
			"target":34963
		},
		{
			"buffer":0,
			"byteLength":288,
			"byteOffset":84456,
			"target":34962
		},
		{
			"buffer":0,
			"byteLength":288,
			"byteOffset":84744,
			"target":34962
		},
		{
			"buffer":0,
			"byteLength":192,
			"byteOffset":85032,
			"target":34962
		},
		{
			"buffer":0,
			"byteLength":72,
			"byteOffset":85224,
			"target":34963
		},
		{
			"buffer":0,
			"byteLength":6624,
			"byteOffset":85296,
			"target":34962
		},
		{
			"buffer":0,
			"byteLength":6624,
			"byteOffset":91920,
			"target":34962
		},
		{
			"buffer":0,
			"byteLength":4416,
			"byteOffset":98544,
			"target":34962
		},
		{
			"buffer":0,
			"byteLength":3624,
			"byteOffset":102960,
			"target":34963
		},
		{
			"buffer":0,
			"byteLength":5616,
			"byteOffset":106584,
			"target":34962
		},
		{
			"buffer":0,
			"byteLength":5616,
			"byteOffset":112200,
			"target":34962
		},
		{
			"buffer":0,
			"byteLength":3744,
			"byteOffset":117816,
			"target":34962
		},
		{
			"buffer":0,
			"byteLength":3840,
			"byteOffset":121560,
			"target":34963
		},
		{
			"buffer":0,
			"byteLength":92496,
			"byteOffset":125400,
			"target":34962
		},
		{
			"buffer":0,
			"byteLength":92496,
			"byteOffset":217896,
			"target":34962
		},
		{
			"buffer":0,
			"byteLength":61664,
			"byteOffset":310392,
			"target":34962
		},
		{
			"buffer":0,
			"byteLength":80832,
			"byteOffset":372056,
			"target":34963
		},
		{
			"buffer":0,
			"byteLength":1728,
			"byteOffset":452888,
			"target":34962
		},
		{
			"buffer":0,
			"byteLength":1728,
			"byteOffset":454616,
			"target":34962
		},
		{
			"buffer":0,
			"byteLength":1152,
			"byteOffset":456344,
			"target":34962
		},
		{
			"buffer":0,
			"byteLength":720,
			"byteOffset":457496,
			"target":34963
		},
		{
			"buffer":0,
			"byteLength":17472,
			"byteOffset":458216,
			"target":34962
		},
		{
			"buffer":0,
			"byteLength":17472,
			"byteOffset":475688,
			"target":34962
		},
		{
			"buffer":0,
			"byteLength":11648,
			"byteOffset":493160,
			"target":34962
		},
		{
			"buffer":0,
			"byteLength":12576,
			"byteOffset":504808,
			"target":34963
		},
		{
			"buffer":0,
			"byteLength":816,
			"byteOffset":517384,
			"target":34962
		},
		{
			"buffer":0,
			"byteLength":816,
			"byteOffset":518200,
			"target":34962
		},
		{
			"buffer":0,
			"byteLength":544,
			"byteOffset":519016,
			"target":34962
		},
		{
			"buffer":0,
			"byteLength":216,
			"byteOffset":519560,
			"target":34963
		},
		{
			"buffer":0,
			"byteLength":9600,
			"byteOffset":519776,
			"target":34962
		},
		{
			"buffer":0,
			"byteLength":9600,
			"byteOffset":529376,
			"target":34962
		},
		{
			"buffer":0,
			"byteLength":6400,
			"byteOffset":538976,
			"target":34962
		},
		{
			"buffer":0,
			"byteLength":4224,
			"byteOffset":545376,
			"target":34963
		},
		{
			"buffer":0,
			"byteLength":2304,
			"byteOffset":549600,
			"target":34962
		},
		{
			"buffer":0,
			"byteLength":2304,
			"byteOffset":551904,
			"target":34962
		},
		{
			"buffer":0,
			"byteLength":1536,
			"byteOffset":554208,
			"target":34962
		},
		{
			"buffer":0,
			"byteLength":1080,
			"byteOffset":555744,
			"target":34963
		},
		{
			"buffer":0,
			"byteLength":33888,
			"byteOffset":556824,
			"target":34962
		},
		{
			"buffer":0,
			"byteLength":33888,
			"byteOffset":590712,
			"target":34962
		},
		{
			"buffer":0,
			"byteLength":22592,
			"byteOffset":624600,
			"target":34962
		},
		{
			"buffer":0,
			"byteLength":10752,
			"byteOffset":647192,
			"target":34963
		}
	],
	"samplers":[
		{
			"magFilter":9729,
			"minFilter":9987
		}
	],
	"buffers":[
		{
			"byteLength":657944,
			"uri":"steampunkGlasses.bin"
		}
	]
}
