{
	"asset":{
		"generator":"Khronos glTF Blender I/O v4.0.44",
		"version":"2.0"
	},
	"extensionsUsed":[
		"KHR_materials_specular",
		"KHR_materials_ior",
		"KHR_materials_transmission"
	],
	"scene":0,
	"scenes":[
		{
			"name":"Scene",
			"nodes":[
				0,
				1,
				2,
				3,
				4,
				5,
				6,
				7,
				8,
				9,
				10,
				11
			]
		}
	],
	"nodes":[
		{
			"name":"Ignore(Photo)",
			"rotation":[
				0.5,
				-0.5,
				0.5,
				0.5
			],
			"scale":[
				1.0898231267929077,
				1.0898231267929077,
				1.0898231267929077
			],
			"translation":[
				2.899162530899048,
				1.6958630084991455,
				-4.667324066162109
			]
		},
		{
			"mesh":0,
			"name":"Frame(Main)",
			"rotation":[
				0.7071068286895752,
				-0.7071068286895752,
				0,
				1.1520234011186403e-07
			],
			"scale":[
				0.668316125869751,
				0.7020767331123352,
				0.668316125869751
			]
		},
		{
			"mesh":1,
			"name":"Bridge(main)",
			"rotation":[
				0,
				-1,
				0,
				1.6292068494294654e-07
			]
		},
		{
			"name":"Ignore(Empty)",
			"rotation":[
				0,
				-1,
				0,
				1.6292069915380125e-07
			],
			"scale":[
				0.20425564050674438,
				0.20425564050674438,
				0.20425564050674438
			],
			"translation":[
				-0.011669999919831753,
				0,
				0
			]
		},
		{
			"mesh":2,
			"name":"Lens(Black).001",
			"rotation":[
				0.7071068286895752,
				-0.7071068286895752,
				0,
				1.1520234011186403e-07
			],
			"scale":[
				0.668316125869751,
				0.8458674550056458,
				0.668316125869751
			]
		},
		{
			"mesh":3,
			"name":"Arm(Main)",
			"rotation":[
				0,
				-1,
				0,
				1.6292068494294654e-07
			],
			"scale":[
				0.05249866470694542,
				0.04442457854747772,
				0.022538522258400917
			]
		},
		{
			"mesh":4,
			"name":"Arm(Screw)",
			"rotation":[
				0,
				-0.7071068286895752,
				0.7071068286895752,
				1.1520233300643667e-07
			],
			"scale":[
				0.04083285108208656,
				0.05882977321743965,
				0.04083285108208656
			]
		},
		{
			"mesh":5,
			"name":"Frame(Side)",
			"rotation":[
				0.7071068286895752,
				-0.7071068286895752,
				0,
				1.1520234011186403e-07
			],
			"scale":[
				0.6589415669441223,
				1.1700730323791504,
				0.6589415669441223
			]
		},
		{
			"mesh":6,
			"name":"Bridge(Inner)",
			"rotation":[
				0,
				-1,
				0,
				1.6292068494294654e-07
			],
			"scale":[
				1.9180657863616943,
				1.1153980493545532,
				0.9715846180915833
			]
		},
		{
			"mesh":7,
			"name":"Frame(BigGear)",
			"rotation":[
				0.7071068286895752,
				-0.7071068286895752,
				0,
				1.1520234011186403e-07
			],
			"scale":[
				0.668316125869751,
				0.668316125869751,
				0.668316125869751
			]
		},
		{
			"mesh":8,
			"name":"Frame(SmallGears)",
			"rotation":[
				0.7071068286895752,
				-0.7071068286895752,
				0,
				1.1520234011186403e-07
			],
			"scale":[
				0.1417321264743805,
				0.1417321264743805,
				0.1417321264743805
			]
		},
		{
			"mesh":9,
			"name":"Lens(Black)",
			"rotation":[
				0.7071068286895752,
				-0.7071068286895752,
				0,
				1.1520234011186403e-07
			],
			"scale":[
				0.668316125869751,
				0.8458674550056458,
				0.668316125869751
			]
		}
	],
	"materials":[
		{
			"doubleSided":true,
			"emissiveTexture":{
				"index":0
			},
			"name":"BrassFrame",
			"normalTexture":{
				"index":1
			},
			"pbrMetallicRoughness":{
				"baseColorTexture":{
					"index":2
				},
				"metallicRoughnessTexture":{
					"index":3
				}
			}
		},
		{
			"doubleSided":true,
			"emissiveTexture":{
				"index":4
			},
			"extensions":{
				"KHR_materials_specular":{
					"specularColorFactor":[
						1.078740119934082,
						1.078740119934082,
						1.078740119934082
					]
				},
				"KHR_materials_ior":{
					"ior":1.4500000476837158
				}
			},
			"name":"AltBrass",
			"normalTexture":{
				"index":5
			},
			"pbrMetallicRoughness":{
				"baseColorTexture":{
					"index":6
				},
				"metallicRoughnessTexture":{
					"index":7
				}
			}
		},
		{
			"alphaMode":"BLEND",
			"doubleSided":true,
			"extensions":{
				"KHR_materials_transmission":{
					"transmissionFactor":1
				},
				"KHR_materials_ior":{
					"ior":1.4500000476837158
				}
			},
			"name":"Black",
			"pbrMetallicRoughness":{
				"baseColorFactor":[
					0.015459712594747543,
					0.015459712594747543,
					0.015459712594747543,
					1
				],
				"metallicFactor":0,
				"roughnessFactor":0.5
			}
		},
		{
			"doubleSided":true,
			"emissiveTexture":{
				"index":8
			},
			"name":"Arm",
			"normalTexture":{
				"index":9
			},
			"pbrMetallicRoughness":{
				"baseColorTexture":{
					"index":10
				},
				"metallicRoughnessTexture":{
					"index":11
				}
			}
		},
		{
			"doubleSided":true,
			"emissiveTexture":{
				"index":12
			},
			"name":"Bolt",
			"normalTexture":{
				"index":13
			},
			"pbrMetallicRoughness":{
				"baseColorTexture":{
					"index":14
				},
				"metallicRoughnessTexture":{
					"index":15
				}
			}
		},
		{
			"doubleSided":true,
			"emissiveTexture":{
				"index":16
			},
			"name":"OuterGear",
			"normalTexture":{
				"index":17
			},
			"pbrMetallicRoughness":{
				"baseColorTexture":{
					"index":18
				},
				"metallicRoughnessTexture":{
					"index":19
				}
			}
		},
		{
			"doubleSided":true,
			"emissiveTexture":{
				"index":20
			},
			"name":"InnerGear",
			"normalTexture":{
				"index":21
			},
			"pbrMetallicRoughness":{
				"baseColorTexture":{
					"index":22
				},
				"metallicRoughnessTexture":{
					"index":23
				}
			}
		},
		{
			"alphaMode":"BLEND",
			"doubleSided":true,
			"extensions":{
				"KHR_materials_transmission":{
					"transmissionFactor":1
				},
				"KHR_materials_ior":{
					"ior":1.4500000476837158
				}
			},
			"name":"Gold",
			"pbrMetallicRoughness":{
				"baseColorFactor":[
					1,
					0.5458818674087524,
					0.1543554961681366,
					1
				],
				"metallicFactor":0,
				"roughnessFactor":0.5167143940925598
			}
		}
	],
	"meshes":[
		{
			"name":"Circle.001",
			"primitives":[
				{
					"attributes":{
						"POSITION":0,
						"NORMAL":1,
						"TEXCOORD_0":2
					},
					"indices":3,
					"material":0
				}
			]
		},
		{
			"name":"Circle.002",
			"primitives":[
				{
					"attributes":{
						"POSITION":4,
						"NORMAL":5,
						"TEXCOORD_0":6
					},
					"indices":7,
					"material":1
				}
			]
		},
		{
			"name":"Circle.003",
			"primitives":[
				{
					"attributes":{
						"POSITION":8,
						"NORMAL":9,
						"TEXCOORD_0":10
					},
					"indices":11,
					"material":2
				}
			]
		},
		{
			"name":"Cube.004",
			"primitives":[
				{
					"attributes":{
						"POSITION":12,
						"NORMAL":13,
						"TEXCOORD_0":14
					},
					"indices":15,
					"material":3
				}
			]
		},
		{
			"name":"Circle.335",
			"primitives":[
				{
					"attributes":{
						"POSITION":16,
						"NORMAL":17,
						"TEXCOORD_0":18
					},
					"indices":19,
					"material":4
				}
			]
		},
		{
			"name":"Circle.343",
			"primitives":[
				{
					"attributes":{
						"POSITION":20,
						"NORMAL":21,
						"TEXCOORD_0":22
					},
					"indices":23,
					"material":1
				}
			]
		},
		{
			"name":"Circle.345",
			"primitives":[
				{
					"attributes":{
						"POSITION":24,
						"NORMAL":25,
						"TEXCOORD_0":26
					},
					"indices":27,
					"material":0
				}
			]
		},
		{
			"name":"Circle.336",
			"primitives":[
				{
					"attributes":{
						"POSITION":28,
						"NORMAL":29,
						"TEXCOORD_0":30
					},
					"indices":31,
					"material":5
				}
			]
		},
		{
			"name":"Circle.340",
			"primitives":[
				{
					"attributes":{
						"POSITION":32,
						"NORMAL":33,
						"TEXCOORD_0":34
					},
					"indices":35,
					"material":6
				},
				{
					"attributes":{
						"POSITION":36,
						"NORMAL":37,
						"TEXCOORD_0":38
					},
					"indices":39,
					"material":5
				}
			]
		},
		{
			"name":"Circle.004",
			"primitives":[
				{
					"attributes":{
						"POSITION":40,
						"NORMAL":41,
						"TEXCOORD_0":42
					},
					"indices":11,
					"material":7
				}
			]
		}
	],
	"textures":[
		{
			"sampler":0,
			"source":0
		},
		{
			"sampler":0,
			"source":1
		},
		{
			"sampler":0,
			"source":2
		},
		{
			"sampler":0,
			"source":3
		},
		{
			"sampler":0,
			"source":4
		},
		{
			"sampler":0,
			"source":5
		},
		{
			"sampler":0,
			"source":6
		},
		{
			"sampler":0,
			"source":7
		},
		{
			"sampler":0,
			"source":8
		},
		{
			"sampler":0,
			"source":9
		},
		{
			"sampler":0,
			"source":10
		},
		{
			"sampler":0,
			"source":11
		},
		{
			"sampler":0,
			"source":12
		},
		{
			"sampler":0,
			"source":13
		},
		{
			"sampler":0,
			"source":14
		},
		{
			"sampler":0,
			"source":15
		},
		{
			"sampler":0,
			"source":16
		},
		{
			"sampler":0,
			"source":17
		},
		{
			"sampler":0,
			"source":18
		},
		{
			"sampler":0,
			"source":19
		},
		{
			"sampler":0,
			"source":20
		},
		{
			"sampler":0,
			"source":21
		},
		{
			"sampler":0,
			"source":22
		},
		{
			"sampler":0,
			"source":23
		}
	],
	"images":[
		{
			"mimeType":"image/png",
			"name":"BrassFrame_Emission.1001",
			"uri":"BrassFrame_Emission_1001.png"
		},
		{
			"mimeType":"image/png",
			"name":"BrassFrame_Normal.1001",
			"uri":"BrassFrame_Normal_1001.png"
		},
		{
			"mimeType":"image/png",
			"name":"BrassFrame_BaseColor.1001-BrassFrame_Alpha.1001",
			"uri":"BrassFrame_BaseColor_1001-BrassFrame_Alpha_1001.png"
		},
		{
			"mimeType":"image/png",
			"name":"BrassFrame_Metallic.1001-BrassFrame_Roughness.1001",
			"uri":"BrassFrame_Metallic_1001-BrassFrame_Roughness_1001.png"
		},
		{
			"mimeType":"image/png",
			"name":"AltBrass_Emission.1001",
			"uri":"AltBrass_Emission_1001.png"
		},
		{
			"mimeType":"image/png",
			"name":"AltBrass_Normal.1001",
			"uri":"AltBrass_Normal_1001.png"
		},
		{
			"mimeType":"image/png",
			"name":"AltBrass_BaseColor.1001.png-AltBrass_Alpha.1001.png",
			"uri":"AltBrass_BaseColor_1001_png-AltBrass_Alpha_1001_png.png"
		},
		{
			"mimeType":"image/png",
			"name":"AltBrass_Metallic.1001.png-AltBrass_Roughness.1001.png",
			"uri":"AltBrass_Metallic_1001_png-AltBrass_Roughness_1001_png.png"
		},
		{
			"mimeType":"image/png",
			"name":"Arm_Emission.1001",
			"uri":"Arm_Emission_1001.png"
		},
		{
			"mimeType":"image/png",
			"name":"Arm_Normal.1001",
			"uri":"Arm_Normal_1001.png"
		},
		{
			"mimeType":"image/png",
			"name":"Arm_BaseColor.1001-Arm_Alpha.1001",
			"uri":"Arm_BaseColor_1001-Arm_Alpha_1001.png"
		},
		{
			"mimeType":"image/png",
			"name":"Arm_Metallic.1001-Arm_Roughness.1001",
			"uri":"Arm_Metallic_1001-Arm_Roughness_1001.png"
		},
		{
			"mimeType":"image/png",
			"name":"Bolt_Emission.1001",
			"uri":"Bolt_Emission_1001.png"
		},
		{
			"mimeType":"image/png",
			"name":"Bolt_Normal.1001",
			"uri":"Bolt_Normal_1001.png"
		},
		{
			"mimeType":"image/png",
			"name":"Bolt_BaseColor.1001-Bolt_Alpha.1001",
			"uri":"Bolt_BaseColor_1001-Bolt_Alpha_1001.png"
		},
		{
			"mimeType":"image/png",
			"name":"Bolt_Metallic.1001-Bolt_Roughness.1001",
			"uri":"Bolt_Metallic_1001-Bolt_Roughness_1001.png"
		},
		{
			"mimeType":"image/png",
			"name":"OuterGear_Emission.1001",
			"uri":"OuterGear_Emission_1001.png"
		},
		{
			"mimeType":"image/png",
			"name":"OuterGear_Normal.1001",
			"uri":"OuterGear_Normal_1001.png"
		},
		{
			"mimeType":"image/png",
			"name":"OuterGear_BaseColor.1001.png-OuterGear_Alpha.1001.png",
			"uri":"OuterGear_BaseColor_1001_png-OuterGear_Alpha_1001_png.png"
		},
		{
			"mimeType":"image/png",
			"name":"OuterGear_Metallic.1001.png-OuterGear_Roughness.1001.png",
			"uri":"OuterGear_Metallic_1001_png-OuterGear_Roughness_1001_png.png"
		},
		{
			"mimeType":"image/png",
			"name":"InnerGear_Emission.1001",
			"uri":"InnerGear_Emission_1001.png"
		},
		{
			"mimeType":"image/png",
			"name":"InnerGear_Normal.1001",
			"uri":"InnerGear_Normal_1001.png"
		},
		{
			"mimeType":"image/png",
			"name":"InnerGear_BaseColor.1001-InnerGear_Alpha.1001",
			"uri":"InnerGear_BaseColor_1001-InnerGear_Alpha_1001.png"
		},
		{
			"mimeType":"image/png",
			"name":"InnerGear_Metallic.1001-InnerGear_Roughness.1001",
			"uri":"InnerGear_Metallic_1001-InnerGear_Roughness_1001.png"
		}
	],
	"accessors":[
		{
			"bufferView":0,
			"componentType":5126,
			"count":2223,
			"max":[
				1.0695865154266357,
				0.04608473554253578,
				2.4555394649505615
			],
			"min":[
				-1.1111273765563965,
				-0.07932884991168976,
				-2.4555392265319824
			],
			"type":"VEC3"
		},
		{
			"bufferView":1,
			"componentType":5126,
			"count":2223,
			"type":"VEC3"
		},
		{
			"bufferView":2,
			"componentType":5126,
			"count":2223,
			"type":"VEC2"
		},
		{
			"bufferView":3,
			"componentType":5123,
			"count":6660,
			"type":"SCALAR"
		},
		{
			"bufferView":4,
			"componentType":5126,
			"count":552,
			"max":[
				0.00045239925384521484,
				0.6994544267654419,
				0.90409255027771
			],
			"min":[
				-0.02379239723086357,
				0.12171095609664917,
				-0.9040926098823547
			],
			"type":"VEC3"
		},
		{
			"bufferView":5,
			"componentType":5126,
			"count":552,
			"type":"VEC3"
		},
		{
			"bufferView":6,
			"componentType":5126,
			"count":552,
			"type":"VEC2"
		},
		{
			"bufferView":7,
			"componentType":5123,
			"count":1812,
			"type":"SCALAR"
		},
		{
			"bufferView":8,
			"componentType":5126,
			"count":468,
			"max":[
				1.0205309391021729,
				0.018569372594356537,
				2.402336597442627
			],
			"min":[
				-0.9794690012931824,
				-0.11545228958129883,
				-2.402336359024048
			],
			"type":"VEC3"
		},
		{
			"bufferView":9,
			"componentType":5126,
			"count":468,
			"type":"VEC3"
		},
		{
			"bufferView":10,
			"componentType":5126,
			"count":468,
			"type":"VEC2"
		},
		{
			"bufferView":11,
			"componentType":5123,
			"count":1920,
			"type":"SCALAR"
		},
		{
			"bufferView":12,
			"componentType":5126,
			"count":7708,
			"max":[
				61.608551025390625,
				0.5263937711715698,
				72.99723052978516
			],
			"min":[
				11.936015129089355,
				-25.40140151977539,
				-72.99722290039062
			],
			"type":"VEC3"
		},
		{
			"bufferView":13,
			"componentType":5126,
			"count":7708,
			"type":"VEC3"
		},
		{
			"bufferView":14,
			"componentType":5126,
			"count":7708,
			"type":"VEC2"
		},
		{
			"bufferView":15,
			"componentType":5123,
			"count":40416,
			"type":"SCALAR"
		},
		{
			"bufferView":16,
			"componentType":5126,
			"count":144,
			"max":[
				17.767011642456055,
				28.040151596069336,
				1.9873669147491455
			],
			"min":[
				15.767011642456055,
				-28.0401554107666,
				-0.012636363506317139
			],
			"type":"VEC3"
		},
		{
			"bufferView":17,
			"componentType":5126,
			"count":144,
			"type":"VEC3"
		},
		{
			"bufferView":18,
			"componentType":5126,
			"count":144,
			"type":"VEC2"
		},
		{
			"bufferView":19,
			"componentType":5123,
			"count":360,
			"type":"SCALAR"
		},
		{
			"bufferView":20,
			"componentType":5126,
			"count":1456,
			"max":[
				1.0677706003189087,
				0.6204729676246643,
				2.4782090187072754
			],
			"min":[
				-1.024275779724121,
				-0.022787392139434814,
				-2.478210926055908
			],
			"type":"VEC3"
		},
		{
			"bufferView":21,
			"componentType":5126,
			"count":1456,
			"type":"VEC3"
		},
		{
			"bufferView":22,
			"componentType":5126,
			"count":1456,
			"type":"VEC2"
		},
		{
			"bufferView":23,
			"componentType":5123,
			"count":6288,
			"type":"SCALAR"
		},
		{
			"bufferView":24,
			"componentType":5126,
			"count":68,
			"max":[
				0.003136998973786831,
				0.6335100531578064,
				0.20919957756996155
			],
			"min":[
				-0.01530550979077816,
				0.5078604817390442,
				-0.20919959247112274
			],
			"type":"VEC3"
		},
		{
			"bufferView":25,
			"componentType":5126,
			"count":68,
			"type":"VEC3"
		},
		{
			"bufferView":26,
			"componentType":5126,
			"count":68,
			"type":"VEC2"
		},
		{
			"bufferView":27,
			"componentType":5123,
			"count":108,
			"type":"SCALAR"
		},
		{
			"bufferView":28,
			"componentType":5126,
			"count":800,
			"max":[
				1.0964596271514893,
				-0.044601939618587494,
				2.4782652854919434
			],
			"min":[
				-1.0553977489471436,
				-0.11669527739286423,
				-2.4782652854919434
			],
			"type":"VEC3"
		},
		{
			"bufferView":29,
			"componentType":5126,
			"count":800,
			"type":"VEC3"
		},
		{
			"bufferView":30,
			"componentType":5126,
			"count":800,
			"type":"VEC2"
		},
		{
			"bufferView":31,
			"componentType":5123,
			"count":2112,
			"type":"SCALAR"
		},
		{
			"bufferView":32,
			"componentType":5126,
			"count":192,
			"max":[
				-1.6297292709350586,
				-0.5145209431648254,
				10.76987075805664
			],
			"min":[
				-4.438118934631348,
				-0.5562249422073364,
				-10.769872665405273
			],
			"type":"VEC3"
		},
		{
			"bufferView":33,
			"componentType":5126,
			"count":192,
			"type":"VEC3"
		},
		{
			"bufferView":34,
			"componentType":5126,
			"count":192,
			"type":"VEC2"
		},
		{
			"bufferView":35,
			"componentType":5123,
			"count":540,
			"type":"SCALAR"
		},
		{
			"bufferView":36,
			"componentType":5126,
			"count":2824,
			"max":[
				-1.4117507934570312,
				-0.440888375043869,
				10.987848281860352
			],
			"min":[
				-4.77136754989624,
				-0.6014197468757629,
				-10.987850189208984
			],
			"type":"VEC3"
		},
		{
			"bufferView":37,
			"componentType":5126,
			"count":2824,
			"type":"VEC3"
		},
		{
			"bufferView":38,
			"componentType":5126,
			"count":2824,
			"type":"VEC2"
		},
		{
			"bufferView":39,
			"componentType":5123,
			"count":5376,
			"type":"SCALAR"
		},
		{
			"bufferView":40,
			"componentType":5126,
			"count":468,
			"max":[
				1.0205309391021729,
				0.018569372594356537,
				2.402336597442627
			],
			"min":[
				-0.9794690012931824,
				-0.11545228958129883,
				-2.402336359024048
			],
			"type":"VEC3"
		},
		{
			"bufferView":41,
			"componentType":5126,
			"count":468,
			"type":"VEC3"
		},
		{
			"bufferView":42,
			"componentType":5126,
			"count":468,
			"type":"VEC2"
		}
	],
	"bufferViews":[
		{
			"buffer":0,
			"byteLength":26676,
			"byteOffset":0,
			"target":34962
		},
		{
			"buffer":0,
			"byteLength":26676,
			"byteOffset":26676,
			"target":34962
		},
		{
			"buffer":0,
			"byteLength":17784,
			"byteOffset":53352,
			"target":34962
		},
		{
			"buffer":0,
			"byteLength":13320,
			"byteOffset":71136,
			"target":34963
		},
		{
			"buffer":0,
			"byteLength":6624,
			"byteOffset":84456,
			"target":34962
		},
		{
			"buffer":0,
			"byteLength":6624,
			"byteOffset":91080,
			"target":34962
		},
		{
			"buffer":0,
			"byteLength":4416,
			"byteOffset":97704,
			"target":34962
		},
		{
			"buffer":0,
			"byteLength":3624,
			"byteOffset":102120,
			"target":34963
		},
		{
			"buffer":0,
			"byteLength":5616,
			"byteOffset":105744,
			"target":34962
		},
		{
			"buffer":0,
			"byteLength":5616,
			"byteOffset":111360,
			"target":34962
		},
		{
			"buffer":0,
			"byteLength":3744,
			"byteOffset":116976,
			"target":34962
		},
		{
			"buffer":0,
			"byteLength":3840,
			"byteOffset":120720,
			"target":34963
		},
		{
			"buffer":0,
			"byteLength":92496,
			"byteOffset":124560,
			"target":34962
		},
		{
			"buffer":0,
			"byteLength":92496,
			"byteOffset":217056,
			"target":34962
		},
		{
			"buffer":0,
			"byteLength":61664,
			"byteOffset":309552,
			"target":34962
		},
		{
			"buffer":0,
			"byteLength":80832,
			"byteOffset":371216,
			"target":34963
		},
		{
			"buffer":0,
			"byteLength":1728,
			"byteOffset":452048,
			"target":34962
		},
		{
			"buffer":0,
			"byteLength":1728,
			"byteOffset":453776,
			"target":34962
		},
		{
			"buffer":0,
			"byteLength":1152,
			"byteOffset":455504,
			"target":34962
		},
		{
			"buffer":0,
			"byteLength":720,
			"byteOffset":456656,
			"target":34963
		},
		{
			"buffer":0,
			"byteLength":17472,
			"byteOffset":457376,
			"target":34962
		},
		{
			"buffer":0,
			"byteLength":17472,
			"byteOffset":474848,
			"target":34962
		},
		{
			"buffer":0,
			"byteLength":11648,
			"byteOffset":492320,
			"target":34962
		},
		{
			"buffer":0,
			"byteLength":12576,
			"byteOffset":503968,
			"target":34963
		},
		{
			"buffer":0,
			"byteLength":816,
			"byteOffset":516544,
			"target":34962
		},
		{
			"buffer":0,
			"byteLength":816,
			"byteOffset":517360,
			"target":34962
		},
		{
			"buffer":0,
			"byteLength":544,
			"byteOffset":518176,
			"target":34962
		},
		{
			"buffer":0,
			"byteLength":216,
			"byteOffset":518720,
			"target":34963
		},
		{
			"buffer":0,
			"byteLength":9600,
			"byteOffset":518936,
			"target":34962
		},
		{
			"buffer":0,
			"byteLength":9600,
			"byteOffset":528536,
			"target":34962
		},
		{
			"buffer":0,
			"byteLength":6400,
			"byteOffset":538136,
			"target":34962
		},
		{
			"buffer":0,
			"byteLength":4224,
			"byteOffset":544536,
			"target":34963
		},
		{
			"buffer":0,
			"byteLength":2304,
			"byteOffset":548760,
			"target":34962
		},
		{
			"buffer":0,
			"byteLength":2304,
			"byteOffset":551064,
			"target":34962
		},
		{
			"buffer":0,
			"byteLength":1536,
			"byteOffset":553368,
			"target":34962
		},
		{
			"buffer":0,
			"byteLength":1080,
			"byteOffset":554904,
			"target":34963
		},
		{
			"buffer":0,
			"byteLength":33888,
			"byteOffset":555984,
			"target":34962
		},
		{
			"buffer":0,
			"byteLength":33888,
			"byteOffset":589872,
			"target":34962
		},
		{
			"buffer":0,
			"byteLength":22592,
			"byteOffset":623760,
			"target":34962
		},
		{
			"buffer":0,
			"byteLength":10752,
			"byteOffset":646352,
			"target":34963
		},
		{
			"buffer":0,
			"byteLength":5616,
			"byteOffset":657104,
			"target":34962
		},
		{
			"buffer":0,
			"byteLength":5616,
			"byteOffset":662720,
			"target":34962
		},
		{
			"buffer":0,
			"byteLength":3744,
			"byteOffset":668336,
			"target":34962
		}
	],
	"samplers":[
		{
			"magFilter":9729,
			"minFilter":9987
		}
	],
	"buffers":[
		{
			"byteLength":672080,
			"uri":"steampunkGlasses.bin"
		}
	]
}
